<?xml version="1.0" encoding="UTF-8"?>
<svg width="68px" height="68px" viewBox="0 0 68 68" version="1.1" xmlns="http://www.w3.org/2000/svg" xmlns:xlink="http://www.w3.org/1999/xlink">
    <!-- Generator: Sketch 47.1 (45422) - http://www.bohemiancoding.com/sketch -->
    <title>Graphic On The Move</title>
    <desc>Created with Sketch.</desc>
    <defs></defs>
    <g id="Symbols" stroke="none" stroke-width="1" fill="none" fill-rule="evenodd">
        <g id="Graphic-On-The-Move">
            <g transform="translate(34.000000, 34.000000) scale(1, -1) translate(-34.000000, -34.000000) ">
                <path d="M34,68 C67.9903846,68 68,52.7776815 68,34 C68,15.2223185 66.9615385,0 34,0 C1.03846154,4.03662426e-15 0,15.2223185 0,34 C0,52.7776815 0.00961538462,68 34,68 Z" id="Oval-2" fill="#B740FB"></path>
                <polygon id="Fill-1057" fill="#FFFFFF" points="45 23 23 23 23 45 45 45"></polygon>
                <path d="M34,17.25 C34.8658571,17.25 35.5714286,17.922 35.5714286,18.75 C35.5714286,19.578 34.8658571,20.25 34,20.25 C33.1341429,20.25 32.4285714,19.578 32.4285714,18.75 C32.4285714,17.922 33.1341429,17.25 34,17.25 L34,17.25 Z M45,21 L45,18.75 C45,16.6815 43.2368571,15 41.0714286,15 L26.9285714,15 C24.7631429,15 23,16.6815 23,18.75 L23,21 L45,21 Z" id="Fill-1058" fill="#FFFFFF"></path>
                <path d="M37.9285714,50 L30.0714286,50 C29.6377143,50 29.2857143,49.664 29.2857143,49.25 C29.2857143,48.836 29.6377143,48.5 30.0714286,48.5 L37.9285714,48.5 C38.3622857,48.5 38.7142857,48.836 38.7142857,49.25 C38.7142857,49.664 38.3622857,50 37.9285714,50 L37.9285714,50 Z M23,47 L23,49.25 C23,51.3185 24.7631429,53 26.9285714,53 L41.0714286,53 C43.2368571,53 45,51.3185 45,49.25 L45,47 L23,47 Z" id="Fill-1059" fill="#FFFFFF"></path>
            </g>
        </g>
    </g>
</svg>