<?xml version="1.0" encoding="UTF-8"?>
<svg width="68px" height="68px" viewBox="0 0 68 68" version="1.1" xmlns="http://www.w3.org/2000/svg" xmlns:xlink="http://www.w3.org/1999/xlink">
    <!-- Generator: Sketch 47.1 (45422) - http://www.bohemiancoding.com/sketch -->
    <title>Graphic By The Hour</title>
    <desc>Created with Sketch.</desc>
    <defs></defs>
    <g id="Symbols" stroke="none" stroke-width="1" fill="none" fill-rule="evenodd">
        <g id="Graphic-By-The-Hour">
            <g>
                <path d="M34,68 C67.9903846,68 68,52.7776815 68,34 C68,15.2223185 66.9615385,0 34,0 C1.03846154,4.03662426e-15 0,15.2223185 0,34 C0,52.7776815 0.00961538462,68 34,68 Z" id="Oval-2" fill="#6B56FD"></path>
                <path d="M54,34 C54,45.0469565 45.0434783,54 34,54 C22.9495652,54 14,45.0469565 14,34 C14,22.9530435 22.9495652,14 34,14 C45.0434783,14 54,22.9530435 54,34 L54,34 Z" id="Stroke-1331" stroke="#FFFFFF" stroke-width="3" stroke-linecap="round" stroke-linejoin="round"></path>
                <polyline id="Stroke-1332" stroke="#FFFFFF" stroke-width="3" stroke-linecap="round" stroke-linejoin="round" points="33 25 33 34.5 44 44"></polyline>
            </g>
        </g>
    </g>
</svg>