<?xml version="1.0" encoding="UTF-8"?>
<svg width="68px" height="68px" viewBox="0 0 68 68" version="1.1" xmlns="http://www.w3.org/2000/svg" xmlns:xlink="http://www.w3.org/1999/xlink">
    <!-- Generator: Sketch 47.1 (45422) - http://www.bohemiancoding.com/sketch -->
    <title>Graphic PAYG</title>
    <desc>Created with Sketch.</desc>
    <defs></defs>
    <g id="Symbols" stroke="none" stroke-width="1" fill="none" fill-rule="evenodd">
        <g id="Graphic-PAYG">
            <g>
                <path d="M34,68 C67.9903846,68 68,52.7776815 68,34 C68,15.2223185 66.9615385,0 34,0 C1.03846154,4.03662426e-15 0,15.2223185 0,34 C0,52.7776815 0.00961538462,68 34,68 Z" id="Oval-2" fill="#4CBFF7"></path>
                <path d="M53.125,35 L47.875,35 C47.392,35 47,35.3733333 47,35.8333333 L47,49.1666667 C47,49.6266667 47.392,50 47.875,50 L53.125,50 C53.608,50 54,49.6266667 54,49.1666667 L54,35.8333333 C54,35.3733333 53.608,35 53.125,35" id="Fill-613" fill="#FFFFFF"></path>
                <path d="M43.1666667,18 L36.5,18 L36.5,32.3868287 L31.5,28.2264964 L26.5,32.3868287 L26.5,18 L19.8333333,18 C19.3733333,18 19,18.3791353 19,18.846284 L19,38.2414218 C19.4933333,38.283736 19.9966667,38.3632867 20.52,38.5139252 L25.145,40 C25.815,38.9675335 26.8916667,38.310817 28.1666667,38.310817 L33.4483333,38.310817 C33.57,38.2211109 33.7066667,38.1161717 33.86,38.0027697 C35.3066667,36.9279889 37.9983333,34.9256809 41.5,34.9256809 L44,34.9256809 L44,18.846284 C44,18.3791353 43.6266667,18 43.1666667,18" id="Fill-696" fill="#FFFFFF"></path>
                <path d="M45,37 L40.9209627,37 C38.0281094,37 35.7601646,38.7058034 34.4059242,39.7255954 C34.055127,39.9889299 33.6194858,40.3160013 33.5786955,40.354579 L32.762888,40.354579 L27.8680432,40.354579 C27.6069848,40.354579 27.3589793,40.4082523 27.1370797,40.5055351 C27.1338165,40.5055351 27.1305532,40.5055351 27.1289216,40.5072123 C26.970655,40.5759812 26.8401258,40.6917142 26.7063334,40.8024153 C26.3506413,41.1663871 26.2266386,41.6746058 26.2266386,42.0385777 C26.2266386,42.8101308 26.6573849,43.709158 27.8680432,43.709158 L36.8419253,43.709158 C37.292251,43.709158 37.6577328,44.0848708 37.6577328,44.5478028 C37.6577328,45.0107347 37.292251,45.3864475 36.8419253,45.3864475 L27.8680432,45.3864475 C25.7208379,45.3864475 24.5950236,43.7024488 24.5950236,42.0385777 C24.5950236,42.0285139 24.5982869,42.0201275 24.5982869,42.0083864 L19.9351314,40.4904394 C17.8091371,39.8648105 16.1546796,40.4132841 14.237532,42.382422 C14.0531595,42.573633 13.9683156,42.8436766 14.0107375,43.1103656 C14.0515279,43.3753774 14.216321,43.6051661 14.449642,43.7259309 C17.77161,45.4317343 20.3724042,46.8540758 22.4625029,47.9979873 C27.5058247,50.7537739 29.8292443,52 32.4773554,52 C34.6474032,52 37.0377191,51.1630325 41.3190767,49.6350218 C42.4057323,49.2475679 43.6278118,48.8114727 45,48.3351224 L45,37 Z" id="Fill-697" fill="#FFFFFF"></path>
            </g>
        </g>
    </g>
</svg>