<svg xmlns="http://www.w3.org/2000/svg" width="45" height="27" viewBox="0 0 45 27">
  <g fill="none" fill-rule="evenodd" stroke="#4CBFF7" stroke-width="2" stroke-linecap="round" stroke-linejoin="round">
    <path d="M33 22.5c0 1.932 1.56625 3.5 3.5 3.5s3.5-1.568 3.5-3.5-1.56625-3.5-3.5-3.5-3.5 1.568-3.5 3.5zM7 22H1m6 .5c0 1.932 1.568 3.5 3.5 3.5s3.5-1.568 3.5-3.5-1.568-3.5-3.5-3.5S7 20.568 7 22.5zm26-.5H15"/>
    <path d="M4 23s.6563636-3.9875 1.4127273-8.5671667C6.6890909 6.69066667 13.3290909 1 21.1127273 1c6.7145454 0 12.7836363 4.03516667 15.42909088 10.2593333l1.09454546 2.574C43.0909091 13.8333333 44 18.5688333 44 23h-3.63636364"/>
    <path d="M23 5c4.4072727 0 8.2636364 3.5 10 7H23m-3-7c-4.4072727 0-8.2636364 3.5-10 7h10m2.5-7v14"/>
  </g>
</svg>