<?xml version="1.0" encoding="UTF-8"?>
<svg width="152px" height="152px" viewBox="0 0 152 152" version="1.1" xmlns="http://www.w3.org/2000/svg" xmlns:xlink="http://www.w3.org/1999/xlink">
    <!-- Generator: Sketch 47.1 (45422) - http://www.bohemiancoding.com/sketch -->
    <title>Product Car</title>
    <desc>Created with Sketch.</desc>
    <defs></defs>
    <g id="Symbols" stroke="none" stroke-width="1" fill="none" fill-rule="evenodd">
        <g id="Product-Car">
            <g>
                <path d="M76,152 C151.978507,152 152,117.973641 152,76 C152,34.026359 149.678733,0 76,0 C2.32126697,9.02304246e-15 0,34.026359 0,76 C0,117.973641 0.0214932127,152 76,152 Z" id="Oval-2-Copy" fill="#4CBFF7"></path>
                <g id="Cars" transform="translate(41.000000, 38.000000)">
                    <g id="Group-2" transform="translate(0.000000, 0.000000)">
                        <g id="Group" transform="translate(35.466063, 21.500000) scale(-1, 1) translate(-35.466063, -21.500000) translate(0.466063, 0.000000)" stroke="#FFFFFF" stroke-width="1.8" stroke-linecap="round" stroke-linejoin="round">
                            <path d="M18.283082,36.0649382 C18.283082,39.3513128 15.6062265,42.0185153 12.3012821,42.0185153 C8.99633761,42.0185153 6.31948215,39.3513128 6.31948215,36.0649382 C6.31948215,32.7785637 8.99633761,30.1113611 12.3012821,30.1113611 C15.6062265,30.1113611 18.283082,32.7785637 18.283082,36.0649382 L18.283082,36.0649382 Z" id="Stroke-4821"></path>
                            <path d="M60.1556812,35.5294118 L69.1283811,35.5294118" id="Stroke-4822"></path>
                            <path d="M60.1556812,36.0649382 C60.1556812,39.3513128 57.4758349,42.0185153 54.1738813,42.0185153 C50.8719278,42.0185153 48.1920814,39.3513128 48.1920814,36.0649382 C48.1920814,32.7785637 50.8719278,30.1113611 54.1738813,30.1113611 C57.4758349,30.1113611 60.1556812,32.7785637 60.1556812,36.0649382 L60.1556812,36.0649382 Z" id="Stroke-4823"></path>
                            <path d="M18.283082,35.5294118 L48.1920814,35.5294118" id="Stroke-4824"></path>
                            <path d="M66.1374811,36.0649382 C66.1374811,36.0649382 65.0577663,29.5904231 63.8135519,22.1544053 C61.7139401,9.58342727 50.7911735,0.343475602 37.9871308,0.343475602 C26.9417373,0.343475602 16.9581133,6.89538721 12.6063538,17.0015843 L10.8058321,21.1809955 C1.83313223,21.1809955 0.337682252,28.8700403 0.337682252,36.0649382 L6.31948215,36.0649382" id="Stroke-4825"></path>
                            <path d="M18.5858974,6.29705271 C25.8358389,6.29705271 32.1795377,12.2506298 35.0358472,18.2042069 L18.5858974,18.2042069" id="Stroke-4826" transform="translate(26.810872, 12.250630) scale(-1, 1) translate(-26.810872, -12.250630) "></path>
                            <path d="M39.2193816,6.29705271 C46.4693231,6.29705271 52.8130219,12.2506298 55.6693313,18.2042069 L39.2193816,18.2042069" id="Stroke-4826-Copy"></path>
                            <path d="M34.9393665,6.29705271 L34.9393665,30.1113611" id="Stroke-4828" transform="translate(34.939367, 18.204207) scale(-1, 1) translate(-34.939367, -18.204207) "></path>
                        </g>
                        <path d="M27.1411765,66.5128914 C29.1691765,66.5128914 30.4951765,65.5248914 31.1321765,63.8608914 L29.6371765,63.3668914 C29.3251765,64.2768914 28.5711765,65.0568914 27.1671765,65.0568914 C25.4641765,65.0568914 24.1771765,63.7438914 24.1771765,61.7938914 C24.1771765,59.9348914 25.4121765,58.5178914 27.1281765,58.5178914 C28.5061765,58.5178914 29.3121765,59.2718914 29.6501765,60.3768914 L31.1711765,59.8828914 C30.5601765,58.0238914 29.0391765,57.0488914 27.1151765,57.0488914 C24.4631765,57.0488914 22.5911765,59.0378914 22.5911765,61.7808914 C22.5911765,64.6538914 24.5021765,66.5128914 27.1411765,66.5128914 Z M38.7761765,66.3438914 L38.0221765,64.3028914 L34.3041765,64.3028914 L33.5501765,66.3438914 L31.9251765,66.3438914 L35.3311765,57.2438914 L36.9951765,57.2438914 L40.4011765,66.3438914 L38.7761765,66.3438914 Z M34.8371765,62.8728914 L37.4891765,62.8728914 L36.1631765,59.2978914 L34.8371765,62.8728914 Z M41.5841765,66.3438914 L41.5841765,57.2438914 L44.9121765,57.2438914 C46.8231765,57.2438914 47.8761765,58.4268914 47.8761765,59.9478914 C47.8761765,61.4038914 47.0441765,62.2488914 46.0951765,62.5608914 L48.2661765,66.3438914 L46.5111765,66.3438914 L44.5221765,62.7818914 L43.1701765,62.7818914 L43.1701765,66.3438914 L41.5841765,66.3438914 Z M43.1701765,61.3908914 L44.8081765,61.3908914 C45.7571765,61.3908914 46.3031765,60.8448914 46.3031765,60.0258914 C46.3031765,59.1808914 45.7311765,58.6738914 44.7821765,58.6738914 L43.1701765,58.6738914 L43.1701765,61.3908914 Z" id="CAR" fill="#FFFFFF"></path>
                    </g>
                    <g id="Fill-744" transform="translate(27.135747, 83.357466)" fill="#FFFFFF">
                        <path d="M20.3829508,4.52072454 L16.0846984,0.250451513 C15.7485078,-0.0834838377 15.2051001,-0.0834838377 14.8689095,0.250451513 C14.5327189,0.584386864 14.5327189,1.12414937 14.8689095,1.45808473 L17.7003048,4.27048654 L0.859822442,4.27048654 C0.384340631,4.27048654 0,4.653103 0,5.12454115 C0,5.59683334 0.384340631,5.97859575 0.859822442,5.97859575 L17.7003048,5.97859575 L14.8689095,8.79099757 C14.5327189,9.12493292 14.5327189,9.66469543 14.8689095,9.99863078 C15.0365749,10.1651714 15.2566894,10.2488688 15.476804,10.2488688 C15.6969185,10.2488688 15.917033,10.1651714 16.0846984,9.99863078 L20.3829508,5.72921181 C20.7191414,5.39527646 20.7148423,4.84953556 20.3829508,4.52072454"></path>
                    </g>
                </g>
            </g>
        </g>
    </g>
</svg>