<?xml version="1.0" encoding="UTF-8"?>
<svg width="152px" height="152px" viewBox="0 0 152 152" version="1.1" xmlns="http://www.w3.org/2000/svg" xmlns:xlink="http://www.w3.org/1999/xlink">
    <!-- Generator: Sketch 47.1 (45422) - http://www.bohemiancoding.com/sketch -->
    <title>Product Scooter</title>
    <desc>Created with Sketch.</desc>
    <defs></defs>
    <g id="Symbols" stroke="none" stroke-width="1" fill="none" fill-rule="evenodd">
        <g id="Product-Scooter">
            <path d="M76,152 C151.978507,152 152,117.973641 152,76 C152,34.026359 149.678733,0 76,0 C2.32126697,9.02304246e-15 0,34.026359 0,76 C0,117.973641 0.0214932127,152 76,152 Z" id="Oval-2" fill="#6B56FD"></path>
            <g id="Group" transform="translate(45.000000, 38.000000)">
                <g id="scooter-icon" transform="translate(2.457014, 0.162896)" stroke="#FFFFFF" stroke-width="1.8" stroke-linecap="round" stroke-linejoin="round">
                    <path d="M19.4506163,30.9475645 C19.4506163,34.8635006 16.2256561,38.0373702 12.2466844,38.0373702 C8.26531128,38.0373702 5.04275238,34.8635006 5.04275238,30.9475645" id="Stroke-1501"></path>
                    <path d="M40.5735054,20.312856 L45.8659941,20.312856 C51.1704893,20.312856 55.4712367,24.0137346 55.4712367,28.584296 L34.5702287,28.584296" id="Stroke-1502"></path>
                    <path d="M26.6545483,16.7679532 C26.6545483,18.0724774 25.5787611,19.1312217 24.2532376,19.1312217 L7.44406304,19.1312217 L2.64144172,14.4023213 L2.64144172,12.041416 L26.6545483,12.041416 L26.6545483,16.7679532 L26.6545483,16.7679532 Z" id="Stroke-1503"></path>
                    <path d="M45.8650335,13.2230503 C43.2115853,13.2230503 41.0624122,11.1055617 41.0624122,8.49651318 C41.0624122,5.88746468 43.2115853,3.76997604 45.8650335,3.76997604 L45.8650335,13.2230503 L45.8650335,13.2230503 Z" id="Stroke-1504"></path>
                    <path d="M33.8584803,0.225073197 L37.4604462,0.225073197 C39.4487315,0.225073197 41.0624122,1.81318967 41.0624122,3.76997604 L41.0624122,16.7679532 C41.0624122,24.5998252 34.6124918,30.9475645 26.6545483,30.9475645 L0.240131066,30.9475645 C0.240131066,24.42258 5.61426432,19.1312217 12.2466844,19.1312217 L18.249961,19.1312217 C24.4501451,19.1312217 29.5529303,23.7561383 30.1892776,29.6926689 L30.2373038,30.5056333" id="Stroke-1505"></path>
                    <path d="M39.0784494,28.584296 C38.8143052,29.3263623 38.6606213,30.115694 38.6606213,30.9475645 C38.6606213,34.8611373 41.8855815,38.0373702 45.8645533,38.0373702 C49.843525,38.0373702 53.0684853,34.8611373 53.0684853,30.9475645 C53.0684853,30.115694 52.9220053,29.3263623 52.6482559,28.584296" id="Stroke-1506"></path>
                </g>
                <path d="M4.03114027,62.2594977 C5.90314027,62.2594977 7.38514027,61.1934977 7.38514027,59.5294977 C7.38514027,57.9564977 6.38414027,57.1374977 4.30414027,56.7214977 C3.06914027,56.4614977 2.39314027,56.2014977 2.39314027,55.4864977 C2.39314027,54.6414977 3.06914027,54.2254977 4.01814027,54.2254977 C5.01914027,54.2254977 5.47414027,54.7584977 5.72114027,55.6944977 L7.20314027,55.2784977 C6.81314027,53.7184977 5.69514027,52.7954977 4.01814027,52.7954977 C2.13314027,52.7954977 0.807140271,53.9004977 0.807140271,55.4864977 C0.807140271,57.0464977 1.96414027,57.8394977 4.01814027,58.2164977 C5.42214027,58.4634977 5.79914027,58.9184977 5.79914027,59.5294977 C5.79914027,60.3874977 5.05814027,60.8294977 4.03114027,60.8294977 C2.87414027,60.8294977 2.34114027,60.2964977 2.02914027,59.2434977 L0.547140271,59.6724977 C0.989140271,61.3624977 2.23714027,62.2594977 4.03114027,62.2594977 Z M13.0791403,62.2594977 C15.1071403,62.2594977 16.4331403,61.2714977 17.0701403,59.6074977 L15.5751403,59.1134977 C15.2631403,60.0234977 14.5091403,60.8034977 13.1051403,60.8034977 C11.4021403,60.8034977 10.1151403,59.4904977 10.1151403,57.5404977 C10.1151403,55.6814977 11.3501403,54.2644977 13.0661403,54.2644977 C14.4441403,54.2644977 15.2501403,55.0184977 15.5881403,56.1234977 L17.1091403,55.6294977 C16.4981403,53.7704977 14.9771403,52.7954977 13.0531403,52.7954977 C10.4011403,52.7954977 8.52914027,54.7844977 8.52914027,57.5274977 C8.52914027,60.4004977 10.4401403,62.2594977 13.0791403,62.2594977 Z M22.9331403,62.2594977 C20.0341403,62.2594977 18.2791403,60.0754977 18.2791403,57.5274977 C18.2791403,54.9794977 20.0211403,52.7954977 22.9331403,52.7954977 C25.8061403,52.7954977 27.5741403,54.9794977 27.5741403,57.5274977 C27.5741403,60.0754977 25.8061403,62.2594977 22.9331403,62.2594977 Z M22.9331403,60.7904977 C24.8051403,60.7904977 25.9881403,59.3994977 25.9881403,57.5274977 C25.9881403,55.6684977 24.8051403,54.2644977 22.9331403,54.2644977 C21.0481403,54.2644977 19.8651403,55.6684977 19.8651403,57.5274977 C19.8651403,59.3994977 21.0351403,60.7904977 22.9331403,60.7904977 Z M33.5281403,62.2594977 C30.6291403,62.2594977 28.8741403,60.0754977 28.8741403,57.5274977 C28.8741403,54.9794977 30.6161403,52.7954977 33.5281403,52.7954977 C36.4011403,52.7954977 38.1691403,54.9794977 38.1691403,57.5274977 C38.1691403,60.0754977 36.4011403,62.2594977 33.5281403,62.2594977 Z M33.5281403,60.7904977 C35.4001403,60.7904977 36.5831403,59.3994977 36.5831403,57.5274977 C36.5831403,55.6684977 35.4001403,54.2644977 33.5281403,54.2644977 C31.6431403,54.2644977 30.4601403,55.6684977 30.4601403,57.5274977 C30.4601403,59.3994977 31.6301403,60.7904977 33.5281403,60.7904977 Z M41.7831403,62.0904977 L43.3691403,62.0904977 L43.3691403,54.4594977 L45.9951403,54.4594977 L45.9951403,52.9904977 L39.1571403,52.9904977 L39.1571403,54.4594977 L41.7831403,54.4594977 L41.7831403,62.0904977 Z M47.2821403,62.0904977 L53.0021403,62.0904977 L53.0021403,60.6604977 L48.8681403,60.6604977 L48.8681403,58.2034977 L52.4561403,58.2034977 L52.4561403,56.8124977 L48.8681403,56.8124977 L48.8681403,54.4204977 L53.0021403,54.4204977 L53.0021403,52.9904977 L47.2821403,52.9904977 L47.2821403,62.0904977 Z M54.5361403,62.0904977 L54.5361403,52.9904977 L57.8641403,52.9904977 C59.7751403,52.9904977 60.8281403,54.1734977 60.8281403,55.6944977 C60.8281403,57.1504977 59.9961403,57.9954977 59.0471403,58.3074977 L61.2181403,62.0904977 L59.4631403,62.0904977 L57.4741403,58.5284977 L56.1221403,58.5284977 L56.1221403,62.0904977 L54.5361403,62.0904977 Z M56.1221403,57.1374977 L57.7601403,57.1374977 C58.7091403,57.1374977 59.2551403,56.5914977 59.2551403,55.7724977 C59.2551403,54.9274977 58.6831403,54.4204977 57.7341403,54.4204977 L56.1221403,54.4204977 L56.1221403,57.1374977 Z" id="SCOOTER" fill="#FFFFFF"></path>
                <path d="M42.0978829,84.6247969 L37.7996305,80.3545239 C37.46344,80.0205886 36.9200322,80.0205886 36.5838416,80.3545239 C36.247651,80.6884593 36.247651,81.2282218 36.5838416,81.5621571 L39.4152369,84.3745589 L22.5747546,84.3745589 C22.0992728,84.3745589 21.7149321,84.7571754 21.7149321,85.2286135 C21.7149321,85.7009057 22.0992728,86.0826681 22.5747546,86.0826681 L39.4152369,86.0826681 L36.5838416,88.89507 C36.247651,89.2290053 36.247651,89.7687678 36.5838416,90.1027032 C36.751507,90.2692438 36.9716215,90.3529412 37.1917361,90.3529412 C37.4118506,90.3529412 37.6319652,90.2692438 37.7996305,90.1027032 L42.0978829,85.8332842 C42.4340735,85.4993489 42.4297744,84.953608 42.0978829,84.6247969" id="Fill-744" fill="#FFFFFF"></path>
            </g>
        </g>
    </g>
</svg>