<?xml version="1.0" encoding="UTF-8"?>
<svg width="152" height="152" xmlns="http://www.w3.org/2000/svg" xmlns:xlink="http://www.w3.org/1999/xlink">
  <defs>
    <path id="a" d="M12.5416667 30.4583333h22.9433819L55.5416667 8.95833333 26.4143263 13.0374025z"/>
  </defs>
  <g fill="none" fill-rule="evenodd">
    <path d="M76 152c75.978507 0 76-34.026359 76-76S149.678733 0 76 0C2.32126697 0 0 34.026359 0 76s.02149321 76 76 76z" fill="#B932FF"/>
    <g transform="translate(37 36)" stroke="#FFF" stroke-width="1.8">
      <circle cx="12.5416667" cy="30.4583333" r="12.5416667"/>
      <circle cx="66.2916667" cy="30.4583333" r="12.5416667"/>
      <path d="M66.2916667 32.25L52.2478224 4.57739521C50.8227002 1.76927209 47.9407187 0 44.7916667 0" stroke-linecap="round" stroke-linejoin="round"/>
      <path stroke-linecap="round" d="M35.8333333 30.4583333L26.455845 12.6471948l-3.1641783-5.48052813"/>
      <g stroke-linecap="round" stroke-linejoin="round">
        <use xlink:href="#a"/>
        <use xlink:href="#a"/>
      </g>
      <path d="M17.9166667 5.375h10.75" stroke-linecap="round" stroke-linejoin="round"/>
    </g>
    <path d="M54.5480769 104.46c2.0271429 0 3.3525825-.987582 3.9893132-2.650879l-1.4943681-.493791c-.3118681.909615-1.0655494 1.689285-2.468956 1.689285-1.7022803 0-2.9887363-1.312445-2.9887363-3.2616205 0-1.8582143 1.234478-3.2746154 2.9497527-3.2746154 1.3774176 0 2.183077.7536813 2.5209341 1.8582143l1.5203572-.4937912C57.9656319 95.9745879 56.4452748 95 54.5220879 95 51.8712088 95 50 96.9881593 50 99.73c0 2.871786 1.9101923 4.73 4.5480769 4.73zm7.6277748-.168929h1.5853297v-3.5475l3.1706593-5.5486534H65.190577l-2.2220605 3.9633242-2.2090659-3.9633242h-1.7412638l3.1576649 5.5486534v3.5475zm9.408022.168929c2.0271429 0 3.3525824-.987582 3.9893132-2.650879l-1.4943681-.493791c-.3118682.909615-1.0655495 1.689285-2.4689561 1.689285-1.7022802 0-2.9887363-1.312445-2.9887363-3.2616205 0-1.8582143 1.2344781-3.2746154 2.9497528-3.2746154 1.3774176 0 2.1830769.7536813 2.5209341 1.8582143l1.5203571-.4937912C75.0014287 95.9745879 73.4810715 95 71.5578847 95c-2.6508791 0-4.5220879 1.9881593-4.5220879 4.73 0 2.871786 1.9101923 4.73 4.5480769 4.73zm5.4966759-.168929h5.5616483v-1.455384h-3.9763187v-7.6407694h-1.5853296v9.0961534zm6.8481044 0h1.5853297v-9.0961534H83.928654v9.0961534zm6.5102473.168929c1.8712088 0 3.3525824-1.065549 3.3525824-2.728846 0-1.572335-1.0005769-2.3909891-3.0796978-2.8068133-1.234478-.2598901-1.9101923-.5197802-1.9101923-1.2344781 0-.8446428.6757143-1.260467 1.6243132-1.260467 1.0005769 0 1.4553846.5327747 1.7022802 1.4683791l1.4813736-.4158241C93.2197254 95.9226099 92.102198 95 90.4259068 95c-1.8842033 0-3.2096429 1.104533-3.2096429 2.6898626 0 1.5593407 1.156511 2.3520054 3.2096429 2.7288464 1.4034066.246895 1.7802472.701703 1.7802472 1.312445 0 .857637-.7406868 1.29945-1.7672527 1.29945-1.156511 0-1.6892858-.532774-2.0011539-1.585329l-1.4813736.428818c.4418132 1.689286 1.6892857 2.585907 3.4825275 2.585907zm6.7051648-.168929h1.5853297v-7.6277743h2.6248902v-1.4683791h-6.83511v1.4683791h2.6248901v7.6277743zm-8.7611153 21.229654l-4.2982524-4.270273c-.3361906-.333936-.8795983-.333936-1.2157889 0-.3361906.333935-.3361906.873697 0 1.207633l2.8313953 2.812402H68.8598224c-.4754818 0-.8598224.382616-.8598224.854054 0 .472292.3843406.854055.8598224.854055h16.8404824l-2.8313953 2.812402c-.3361906.333935-.3361906.873697 0 1.207633.1676654.16654.3877799.250238.6078945.250238.2201145 0 .440229-.083698.6078944-.250238l4.2982524-4.269419c.3361906-.333936.3318915-.879676 0-1.208487" fill="#FFF"/>
  </g>
</svg>
