<svg xmlns="http://www.w3.org/2000/svg" width="48" height="32" viewBox="0 0 48 32">
  <g fill="none" fill-rule="evenodd" stroke="#6B56FD" stroke-width="1.8" stroke-linecap="round" stroke-linejoin="round">
    <path d="M18 24c0 2.7616667-2.2383333 5-5 5-2.76333333 0-5-2.2383333-5-5m25.308364-7h3.7982536C40.9134881 17 44 19.6845714 44 23H29m-6-8.6666667C23 15.2533333 22.2384 16 21.3 16H9.4L6 12.665V11h17v3.3333333zM36 12c-1.6575 0-3-1.568-3-3.5S34.3425 5 36 5v7z"/>
    <path d="M27.8823529 2h2.5588236C31.8536471 2 33 3.13723077 33 4.53846154v9.30769226C33 19.4544615 28.418 24 22.7647059 24H4c0-4.6724615 3.8177647-8.4615385 8.52941176-8.4615385h4.26470584c4.4045883 0 8.0295883 3.3118462 8.4816471 7.5629231l.0341177.5821539M32.29 23c-.1833333.5495-.29 1.134-.29 1.75 0 2.898 2.2383333 5.25 5 5.25s5-2.352 5-5.25c0-.616-.1016667-1.2005-.2916667-1.75"/>
  </g>
</svg>
