<?xml version="1.0" encoding="UTF-8"?>
<svg width="357px" height="93px" viewBox="0 0 357 93" version="1.1" xmlns="http://www.w3.org/2000/svg" xmlns:xlink="http://www.w3.org/1999/xlink">
    <!-- Generator: Sketch 46.2 (44496) - http://www.bohemiancoding.com/sketch -->
    <title>Shape</title>
    <desc>Created with Sketch.</desc>
    <defs></defs>
    <g id="Page-1" stroke="none" stroke-width="1" fill="none" fill-rule="evenodd">
        <g id="zego-logo-green" fill-rule="nonzero" fill="#46E18C">
            <path d="M70.1,20.8 L3.7,20.8 C1.8,20.8 0.3,19.3 0.3,17.4 L0.3,4.3 C0.3,2.4 1.8,0.9 3.7,0.9 L70.1,0.9 C72,0.9 73.5,2.4 73.5,4.3 L73.5,17.4 C73.5,19.3 71.9,20.8 70.1,20.8 Z M160.6,88.7 L160.6,75.6 C160.6,73.7 159.1,72.2 157.2,72.2 L92.5,72.2 C90.6,72.2 89.1,73.7 89.1,75.6 L89.1,88.7 C89.1,90.6 90.6,92.1 92.5,92.1 L157.2,92.1 C159.1,92.1 160.6,90.6 160.6,88.7 Z M27,72.2 L50.6,46.1 C51.8,44.8 51.8,42.7 50.5,41.4 L41.2,32.1 C39.8,30.7 37.6,30.8 36.3,32.2 L1.1,71.2 C0.5,71.8 0.2,72.6 0.2,73.5 L0.2,88.7 C0.2,90.6 1.7,92.1 3.6,92.1 L70,92.1 C71.9,92.1 73.4,90.6 73.4,88.7 L73.4,75.6 C73.4,73.7 71.9,72.2 70,72.2 L27,72.2 Z M160.6,17.4 L160.6,4.3 C160.6,2.4 159.1,0.9 157.2,0.9 L92.5,0.9 C90.6,0.9 89.1,2.4 89.1,4.3 L89.1,53 C89.1,54.9 90.6,56.4 92.5,56.4 L144.2,56.4 C146.1,56.4 147.6,54.9 147.6,53 L147.6,40 C147.6,38.1 146.1,36.6 144.2,36.6 L109,36.6 L109,20.8 L157.2,20.8 C159.1,20.8 160.6,19.3 160.6,17.4 Z M235.8,67.5 L245.1,76.8 C246.5,78.2 246.4,80.5 244.9,81.8 C226.2,97.7 197.9,96.5 180.8,78 C164.4,60.4 164.4,32.7 180.8,15 C197.9,-3.5 226.2,-4.8 244.9,11.2 C246.4,12.5 246.5,14.8 245.1,16.2 L235.8,25.5 C234.6,26.7 232.6,26.8 231.3,25.8 C220.5,17.2 204.4,18.2 194.9,29 C186.1,38.9 186.1,54.1 194.9,64 C204.4,74.8 220.5,75.9 231.3,67.2 C232.7,66.2 234.6,66.3 235.8,67.5 Z M356.4,46.5 C356.4,72.1 335.6,92.9 310,92.9 C284.4,92.9 263.6,72.1 263.6,46.5 C263.6,20.9 284.4,0.1 310,0.1 C335.6,0.1 356.4,20.9 356.4,46.5 Z M336.5,46.5 C336.5,31.9 324.6,20 310,20 C295.4,20 283.5,31.9 283.5,46.5 C283.5,61.1 295.4,73 310,73 C324.7,73 336.5,61.1 336.5,46.5 Z M253.7,53 L253.7,40 C253.7,38.1 252.2,36.6 250.3,36.6 L212.6,36.6 C210.7,36.6 209.2,38.1 209.2,40 L209.2,53 C209.2,54.9 210.7,56.4 212.6,56.4 L250.3,56.4 C252.2,56.4 253.7,54.9 253.7,53 Z" id="Shape"></path>
        </g>
    </g>
</svg>