<?xml version="1.0" encoding="UTF-8"?>
<svg width="104px" height="27px" viewBox="0 0 104 27" version="1.1" xmlns="http://www.w3.org/2000/svg" xmlns:xlink="http://www.w3.org/1999/xlink">
    <g id="Symbols" stroke="none" stroke-width="1" fill="none" fill-rule="evenodd">
        <g id="Logo" fill="#FFFFFF" fill-rule="nonzero">
            <path d="M20.4087592,6.02447694 L1.02189781,6.02447694 C0.467153285,6.02447694 0.0291970803,5.58809296 0.0291970803,5.03533992 L0.0291970803,1.22425321 C0.0291970803,0.671500181 0.467153285,0.235116207 1.02189781,0.235116207 L20.4087592,0.235116207 C20.9635036,0.235116207 21.4014599,0.671500181 21.4014599,1.22425321 L21.4014599,5.03533992 C21.4014599,5.58809296 20.9343065,6.02447694 20.4087592,6.02447694 Z M46.8321168,25.7781248 L46.8321168,21.9670382 C46.8321168,21.4142851 46.3941606,20.9779011 45.8394161,20.9779011 L26.9489052,20.9779011 C26.3941606,20.9779011 25.9562044,21.4142851 25.9562044,21.9670382 L25.9562044,25.7781248 C25.9562044,26.3308779 26.3941606,26.7672618 26.9489052,26.7672618 L45.8394161,26.7672618 C46.3941606,26.7672618 46.8321168,26.3308779 46.8321168,25.7781248 Z M7.82481752,20.9779011 L14.7153285,13.3848199 C15.0656934,13.0066205 15.0656934,12.395683 14.6861314,12.0174835 L11.9708029,9.31190288 C11.5620438,8.90461117 10.9197081,8.93370343 10.540146,9.34099514 L0.262773723,20.6869785 C0.0875912409,20.8615321 0,21.0942702 0,21.3561005 L0,25.7781248 C0,26.3308779 0.437956204,26.7672618 0.99270073,26.7672618 L20.379562,26.7672618 C20.9343065,26.7672618 21.3722628,26.3308779 21.3722628,25.7781248 L21.3722628,21.9670382 C21.3722628,21.4142851 20.9343065,20.9779011 20.379562,20.9779011 L7.82481752,20.9779011 Z M46.8321168,5.03533992 L46.8321168,1.22425321 C46.8321168,0.671500181 46.3941606,0.235116207 45.8394161,0.235116207 L26.9489052,0.235116207 C26.3941606,0.235116207 25.9562044,0.671500181 25.9562044,1.22425321 L25.9562044,15.3921862 C25.9562044,15.9449393 26.3941606,16.3813233 26.9489052,16.3813233 L42.0437957,16.3813233 C42.5985402,16.3813233 43.0364964,15.9449393 43.0364964,15.3921862 L43.0364964,11.6101918 C43.0364964,11.0574388 42.5985402,10.6210548 42.0437957,10.6210548 L31.7664233,10.6210548 L31.7664233,6.02447694 L45.8394161,6.02447694 C46.3941606,6.02447694 46.8321168,5.58809296 46.8321168,5.03533992 Z M68.7883212,19.6105647 L71.5036497,22.3161453 C71.9124088,22.7234371 71.8832117,23.3925591 71.4452554,23.7707585 C65.9854015,28.3964287 57.7226278,28.0473215 52.729927,22.6652525 C47.9416058,17.5450139 47.9416058,9.48645646 52.729927,4.33712557 C57.7226278,-1.04494345 65.9854015,-1.42314289 71.4452554,3.2316195 C71.8832117,3.60981895 71.9124088,4.27894104 71.5036497,4.68623274 L68.7883212,7.39181338 C68.4379562,7.74092057 67.8540146,7.77001284 67.4744526,7.47909018 C64.3211679,4.97715539 59.620438,5.26807805 56.8467153,8.41004266 C54.2773722,11.2901769 54.2773722,15.7122012 56.8467153,18.5923354 C59.620438,21.7343 64.3211679,22.0543149 67.4744526,19.5232878 C67.8832117,19.2323652 68.4379562,19.2614575 68.7883212,19.6105647 Z M104,13.501189 C104,20.9488088 97.9270073,27 90.4525547,27 C82.9781022,27 76.9051095,20.9488088 76.9051095,13.501189 C76.9051095,6.0535692 82.9781022,0.00237808705 90.4525547,0.00237808705 C97.9270073,0.00237808705 104,6.0535692 104,13.501189 Z M98.189781,13.501189 C98.189781,9.25371834 94.7153284,5.79173881 90.4525547,5.79173881 C86.189781,5.79173881 82.7153285,9.25371834 82.7153285,13.501189 C82.7153285,17.7486597 86.189781,21.2106393 90.4525547,21.2106393 C94.7445255,21.2106393 98.189781,17.7486597 98.189781,13.501189 Z M74.0145985,15.3921862 L74.0145985,11.6101918 C74.0145985,11.0574388 73.5766424,10.6210548 73.0218978,10.6210548 L62.0145986,10.6210548 C61.459854,10.6210548 61.0218978,11.0574388 61.0218978,11.6101918 L61.0218978,15.3921862 C61.0218978,15.9449393 61.459854,16.3813233 62.0145986,16.3813233 L73.0218978,16.3813233 C73.5766424,16.3813233 74.0145985,15.9449393 74.0145985,15.3921862 Z"></path>
        </g>
    </g>
</svg>
